<svg width="25" height="24" viewBox="0 0 25 24" fill="none" xmlns="http://www.w3.org/2000/svg">
<path d="M4.5 11.7257C4.5 11.346 4.78215 11.0322 5.14823 10.9826L5.25 10.9757H20.25C20.6642 10.9757 21 11.3115 21 11.7257C21 12.1054 20.7178 12.4192 20.3518 12.4689L20.25 12.4757L5.25 12.4757C4.83579 12.4757 4.5 12.1399 4.5 11.7257Z" fill="#151515" stroke="#151515"/>
<path d="M13.671 6.23278C13.3775 5.94051 13.3765 5.46564 13.6687 5.17212C13.9344 4.90528 14.351 4.88018 14.6451 5.0974L14.7294 5.16983L20.7794 11.1938C21.047 11.4603 21.0714 11.8784 20.8524 12.1725L20.7794 12.2567L14.7294 18.2817C14.4359 18.574 13.9611 18.573 13.6688 18.2795C13.4031 18.0127 13.3797 17.596 13.5982 17.3028L13.671 17.2189L19.187 11.725L13.671 6.23278Z" fill="#151515" stroke="#151515"/>
</svg>
