<svg width="230" height="51" viewBox="0 0 230 51" fill="none" xmlns="http://www.w3.org/2000/svg">
<path d="M0 10.7236V0.458008H11.3577V10.7236H0ZM0 22.1024L11.3577 10.7236V50.7079H0V22.1024Z" fill="white"/>
<path d="M50.2008 0.422852H61.4176V50.6727H49.5667L28.8453 17.6426V50.6727H17.7061V17.6426H28.8453L18.1781 0.422852H31.3254L50.2079 30.9659L50.2008 0.422852Z" fill="white"/>
<path d="M103.987 35.44C103.987 42.9859 97.6526 50.6728 86.147 50.6728C74.5639 50.6728 68.723 44.1555 66.9404 37.9905L76.6283 34.7495C77.6428 38.3287 80.6443 41.1541 86.2809 41.1541C90.5012 41.1541 93.087 39.1109 93.087 36.1235C93.087 33.6786 91.1142 31.9101 87.9084 31.2971L81.3066 30.0712C73.1336 28.507 68.1664 23.0678 68.1664 15.9305C68.1664 6.82041 76.1985 0.437012 85.4706 0.437012C95.5812 0.437012 100.407 5.50286 102.31 10.4701L92.6502 13.697C91.6215 11.8087 89.4937 9.95576 85.4001 9.95576C81.3841 9.95576 78.7984 12.471 78.7984 15.1202C78.7984 17.4312 80.2286 19.1293 83.5683 19.7422L90.0362 20.9682C99.2168 22.6592 103.987 28.5775 103.987 35.44Z" fill="white"/>
<path d="M105.854 0.422852H148.086V11.1253H132.544V50.6727H121.327V22.3561L132.544 11.1253H105.854V0.422852Z" fill="#101010"/>
<path d="M191.192 50.7079H178.981L175.36 40.4987H155.914L152.292 50.7079H140.505L159.465 0.458008H172.45L180.377 21.7148L171.809 30.2895L165.778 12.9218L159.613 30.2895H183.582L191.192 50.7079Z" fill="#101010"/>
<path d="M230.001 16.5079C230.001 26.0055 222.977 32.5933 212.753 32.5933H205.017V50.6656H193.808V21.4329L205.095 10.1316V22.9618H211.626C215.882 22.9618 218.792 20.4818 218.792 16.5855C218.792 12.5413 215.882 10.1387 211.626 10.1387H193.808V0.429693H212.768C222.97 0.422647 230.001 7.1583 230.001 16.5079Z" fill="#101010"/>
</svg>
