<svg width="20" height="21" viewBox="0 0 20 21" fill="none" xmlns="http://www.w3.org/2000/svg">
<path fill-rule="evenodd" clip-rule="evenodd" d="M20.001 20.7563H15.5805V13.7253C15.5805 11.8853 14.8896 10.6288 13.3687 10.6288C12.206 10.6288 11.5592 11.4769 11.2582 12.2939C11.1451 12.5869 11.1628 12.9954 11.1628 13.4039V20.7563H6.7837C6.7837 20.7563 6.84007 8.30185 6.7837 7.16985H11.1628V9.30235C11.4219 8.36985 12.821 7.03935 15.0537 7.03935C17.8242 7.03935 20.001 8.99334 20.001 13.2018V20.7563ZM2.35552 5.47035H2.32689C0.915979 5.47035 0.000976562 4.43184 0.000976562 3.11534C0.000976562 1.77334 0.942801 0.756348 2.38235 0.756348C3.82053 0.756348 4.70506 1.77084 4.73278 3.11134C4.73278 4.42784 3.82052 5.47035 2.35552 5.47035ZM0.505515 7.16985H4.40369V20.7563H0.505515V7.16985Z" fill="white"/>
</svg>
