<svg width="20" height="21" viewBox="0 0 20 21" fill="none" xmlns="http://www.w3.org/2000/svg">
<path d="M20.001 10.4228C20.001 15.9457 15.5238 20.4229 10.001 20.4229C8.96788 20.4229 7.97138 20.2662 7.03392 19.9753C7.44518 19.3071 8.04468 18.2333 8.26474 17.3693L8.89024 14.9907C9.21124 15.6162 10.166 16.1429 11.1783 16.1429C14.1907 16.1429 16.3635 13.3693 16.3635 9.92069C16.3635 6.61205 13.6639 4.14293 10.1989 4.14293C5.87791 4.14293 3.58984 7.04005 3.58984 10.1923C3.58984 11.6655 4.37174 13.4845 5.62278 14.0689C5.81207 14.1594 5.91907 14.1182 5.9602 13.9372C5.97384 13.8792 6.01152 13.7279 6.05625 13.5483C6.11943 13.2946 6.19668 12.9845 6.24003 12.8014C6.26474 12.7026 6.25649 12.6121 6.1742 12.5133C5.7627 12.0113 5.43345 11.0894 5.43345 10.2335C5.43345 8.02768 7.10424 5.89603 9.95199 5.89603C12.4129 5.89603 14.133 7.56679 14.133 9.96186C14.133 12.6615 12.7668 14.538 10.989 14.538C10.0096 14.538 9.26886 13.7232 9.50753 12.7273C9.61008 12.3024 9.74497 11.8661 9.87617 11.4418C10.1135 10.674 10.3388 9.9452 10.3388 9.39395C10.3388 8.62852 9.92728 7.98656 9.07132 7.98656C8.0672 7.98656 7.26061 9.0236 7.26061 10.4145C7.26061 11.2952 7.55691 11.896 7.55691 11.896C7.55691 11.896 6.56928 16.0853 6.3882 16.8672C6.19084 17.7306 6.2646 18.9472 6.35502 19.7374C2.63522 18.2802 0.000976562 14.6592 0.000976562 10.4228C0.000976562 4.89999 4.47814 0.422852 10.001 0.422852C15.5238 0.422852 20.001 4.89999 20.001 10.4228Z" fill="white"/>
</svg>
