<svg width="264" height="300" viewBox="0 0 264 300" fill="none" xmlns="http://www.w3.org/2000/svg">
<g clip-path="url(#clip0_119_5360)">
<mask id="mask0_119_5360" style="mask-type:alpha" maskUnits="userSpaceOnUse" x="0" y="0" width="1260" height="985">
<rect y="0.422852" width="1260" height="984" rx="12" fill="url(#paint0_linear_119_5360)"/>
</mask>
<g mask="url(#mask0_119_5360)">
<path fill-rule="evenodd" clip-rule="evenodd" d="M32.6746 249.772C133.011 249.772 214.349 168.434 214.349 68.0975C214.349 -32.2386 133.011 -113.577 32.6746 -113.577C-67.6615 -113.577 -149 -32.2386 -149 68.0975C-149 168.434 -67.6615 249.772 32.6746 249.772ZM32.6746 299.772C160.625 299.772 264.349 196.048 264.349 68.0975C264.349 -59.8529 160.625 -163.577 32.6746 -163.577C-95.2757 -163.577 -199 -59.8529 -199 68.0975C-199 196.048 -95.2757 299.772 32.6746 299.772Z" fill="url(#paint1_linear_119_5360)"/>
<path fill-rule="evenodd" clip-rule="evenodd" d="M18.885 171.193C80.1251 171.193 129.77 121.548 129.77 60.3079C129.77 -0.932228 80.1251 -50.5771 18.885 -50.5771C-42.3551 -50.5771 -92 -0.932228 -92 60.3079C-92 121.548 -42.3551 171.193 18.885 171.193ZM18.885 221.193C107.739 221.193 179.77 149.162 179.77 60.3079C179.77 -28.5465 107.739 -100.577 18.885 -100.577C-69.9693 -100.577 -142 -28.5465 -142 60.3079C-142 149.162 -69.9693 221.193 18.885 221.193Z" fill="url(#paint2_linear_119_5360)"/>
</g>
</g>
<defs>
<linearGradient id="paint0_linear_119_5360" x1="833.408" y1="391.5" x2="327.055" y2="325.354" gradientUnits="userSpaceOnUse">
<stop stop-color="#C18C35"/>
<stop offset="1" stop-color="#F8E087"/>
</linearGradient>
<linearGradient id="paint1_linear_119_5360" x1="107.475" y1="20.5745" x2="-79.9566" y2="1.4531" gradientUnits="userSpaceOnUse">
<stop stop-color="#C18C35"/>
<stop offset="1" stop-color="#F8E087"/>
</linearGradient>
<linearGradient id="paint2_linear_119_5360" x1="70.83" y1="27.3059" x2="-59.3311" y2="14.0271" gradientUnits="userSpaceOnUse">
<stop stop-color="#C18C35"/>
<stop offset="1" stop-color="#F8E087"/>
</linearGradient>
<clipPath id="clip0_119_5360">
<rect width="264" height="299" fill="white" transform="translate(0 0.422852)"/>
</clipPath>
</defs>
</svg>
