<svg width="20" height="16" viewBox="0 0 20 16" fill="none" xmlns="http://www.w3.org/2000/svg">
<path d="M20.001 1.86607C19.2486 2.16896 18.453 2.37027 17.6385 2.46381C18.4969 1.9937 19.1386 1.2493 19.4421 0.371647C18.6386 0.811517 17.7595 1.12132 16.8428 1.28765C16.2806 0.733231 15.5507 0.347758 14.748 0.181344C13.9453 0.0149293 13.1069 0.075273 12.3419 0.354529C11.5768 0.633784 10.9205 1.11903 10.4582 1.74718C9.99592 2.37534 9.74908 3.11733 9.74978 3.8767C9.74663 4.16647 9.7785 4.45566 9.84482 4.7389C8.21366 4.66509 6.61774 4.27435 5.1614 3.59223C3.70506 2.91011 2.42109 1.95197 1.39343 0.780444C0.865821 1.61296 0.702319 2.59995 0.936298 3.53995C1.17028 4.47996 1.78409 5.3021 2.65247 5.83859C2.00371 5.82241 1.36868 5.66253 0.800871 5.37244V5.41367C0.801939 6.28762 1.12918 7.13455 1.7275 7.81189C2.32583 8.48923 3.15871 8.95564 4.08594 9.13259C3.73516 9.21793 3.37364 9.25985 3.01089 9.25723C2.75041 9.26148 2.49019 9.2398 2.23475 9.19257C2.49975 9.94366 3.01047 10.6005 3.6966 11.0726C4.38273 11.5447 5.21054 11.8089 6.06608 11.8289C4.61475 12.8765 2.82485 13.4448 0.982416 13.4431C0.6544 13.445 0.326582 13.4276 0.000976562 13.3909C1.87581 14.5061 4.06051 15.096 6.29088 15.0893C13.8358 15.0893 17.9609 9.32059 17.9609 4.32017C17.9609 4.15279 17.9546 3.99141 17.9459 3.83096C18.7546 3.29676 19.4511 2.6309 20.001 1.86607Z" fill="white"/>
</svg>
